<?xml version="1.0" encoding="iso-8859-1"?>
<!-- Generator: Adobe Illustrator 19.0.0, SVG Export Plug-In . SVG Version: 6.00 Build 0)  -->
<svg version="1.1" id="Layer_1" xmlns="http://www.w3.org/2000/svg" xmlns:xlink="http://www.w3.org/1999/xlink" x="0px" y="0px"
	 viewBox="0 0 512 512" style="enable-background:new 0 0 512 512;" xml:space="preserve">
<rect x="186.182" y="372.364" style="fill:#D8D8DA;" width="93.091" height="81.455"/>
<rect x="232.727" y="372.364" style="fill:#C6C5CA;" width="46.545" height="81.455"/>
<rect y="34.909" style="fill:#EDEDED;" width="465.455" height="349.091"/>
<rect x="232.727" y="34.909" style="fill:#D8D8DA;" width="232.727" height="349.091"/>
<rect y="34.909" style="fill:#88888F;" width="465.455" height="290.909"/>
<rect x="232.727" y="34.909" style="fill:#797781;" width="232.727" height="290.909"/>
<rect x="128" y="442.182" style="fill:#EDEDED;" width="209.455" height="34.909"/>
<rect x="232.727" y="442.182" style="fill:#D8D8DA;" width="104.727" height="34.909"/>
<polygon style="fill:#797781;" points="232.727,69.818 232.727,34.909 0,34.909 0,325.818 232.727,325.818 232.727,290.909 
	34.909,290.909 34.909,69.818 "/>
<polygon style="fill:#58575D;" points="232.727,290.909 232.727,325.818 465.455,325.818 465.455,34.909 232.727,34.909 
	232.727,69.818 430.545,69.818 430.545,290.909 "/>
<rect x="395.636" y="93.091" style="fill:#88888F;" width="116.364" height="209.455"/>
<g>
	<rect x="395.636" y="267.636" style="fill:#ACAAB0;" width="116.364" height="34.909"/>
	<rect x="395.636" y="93.091" style="fill:#ACAAB0;" width="116.364" height="34.909"/>
</g>
<polygon style="fill:#F8E99B;" points="488.727,197.814 435.733,144.806 435.733,180.364 122.813,180.364 122.813,144.806 
	69.818,197.814 122.813,250.835 122.813,215.273 435.733,215.273 435.733,250.835 "/>
<g>
</g>
<g>
</g>
<g>
</g>
<g>
</g>
<g>
</g>
<g>
</g>
<g>
</g>
<g>
</g>
<g>
</g>
<g>
</g>
<g>
</g>
<g>
</g>
<g>
</g>
<g>
</g>
<g>
</g>
</svg>
